<?xml version="1.0" encoding="utf-8"?>
<svg width="550px" height="550px" viewBox="0 0 550 550" version="1.1" xmlns:xlink="http://www.w3.org/1999/xlink" xmlns="http://www.w3.org/2000/svg">
  <path d="M0 0L550 0L550 550L0 550L0 0Z" id="Rectangle" fill="#C885D9" fill-rule="evenodd" stroke="none" />
  <g id="S" fill="#F8C822" transform="translate(275 170)">
    <path d="M139.909 122.136Q138.068 106.591 124.977 98Q111.886 89.4091 92.8636 89.4091Q72 89.4091 59.3182 99.2784Q46.6364 109.148 46.6364 124.182Q46.6364 135.432 53.5398 142.335Q60.4432 149.239 69.9034 153.074Q79.3636 156.909 87.1364 158.955L108.409 164.682Q116.591 166.83 126.665 170.614Q136.739 174.398 145.994 180.892Q155.25 187.386 161.284 197.511Q167.318 207.636 167.318 222.364Q167.318 239.341 158.472 253.045Q149.625 266.75 132.699 274.83Q115.773 282.909 91.6364 282.909Q57.8864 282.909 38.0455 266.955Q18.2045 251 16.3636 225.227L42.5455 225.227Q43.5682 237.091 50.5739 244.813Q57.5796 252.534 68.3693 256.267Q79.1591 260 91.6364 260Q106.159 260 117.716 255.244Q129.273 250.489 136.023 241.949Q142.773 233.409 142.773 221.955Q142.773 211.523 136.943 204.977Q131.114 198.432 121.602 194.341Q112.091 190.25 101.045 187.182L75.2727 179.818Q50.7273 172.761 36.4091 159.67Q22.0909 146.58 22.0909 125.409Q22.0909 107.818 31.6534 94.6762Q41.2159 81.5341 57.4261 74.2216Q73.6364 66.9091 93.6818 66.9091Q113.932 66.9091 129.682 74.1193Q145.432 81.3296 154.688 93.8068Q163.943 106.284 164.455 122.136L139.909 122.136Z" />
  </g>
  <g id="J" fill="#F8C822" transform="translate(107 53)">
    <path d="M105.545 69.7727L130.909 69.7727L130.909 219.5Q130.909 249.67 114.699 265.881Q98.4886 282.091 71.1818 282.091Q54 282.091 40.6023 275.801Q27.2045 269.511 19.5341 257.852Q11.8636 246.193 11.8636 230.136L36.8182 230.136Q36.8182 243.432 46.5341 251.511Q56.25 259.591 71.1818 259.591Q87.6477 259.591 96.5966 249.313Q105.545 239.034 105.545 219.5L105.545 69.7727Z" />
  </g>
  <path d="M43 35L507 35L507 519L43 519L43 35Z" id="Rectangle-2" fill="#D3D3D3" fill-opacity="0" fill-rule="evenodd" stroke="#F8C822" stroke-width="8" />
</svg>